<?xml version="1.0" encoding="UTF-8" standalone="no"?>
<!-- Created with Inkscape (http://www.inkscape.org/) -->

<svg
   width="48"
   height="48"
   viewBox="0 0 12.7 12.7"
   version="1.1"
   id="svg1"
   inkscape:version="1.3.2 (091e20ef0f, 2023-11-25, custom)"
   sodipodi:docname="runixeer.svg"
   xml:space="preserve"
   xmlns:inkscape="http://www.inkscape.org/namespaces/inkscape"
   xmlns:sodipodi="http://sodipodi.sourceforge.net/DTD/sodipodi-0.dtd"
   xmlns:xlink="http://www.w3.org/1999/xlink"
   xmlns="http://www.w3.org/2000/svg"
   xmlns:svg="http://www.w3.org/2000/svg"
   xmlns:rdf="http://www.w3.org/1999/02/22-rdf-syntax-ns#"
   xmlns:cc="http://creativecommons.org/ns#"
   xmlns:dc="http://purl.org/dc/elements/1.1/"><title
     id="title1">Runixeer Icon</title><sodipodi:namedview
     id="namedview1"
     pagecolor="#505050"
     bordercolor="#eeeeee"
     borderopacity="1"
     inkscape:showpageshadow="0"
     inkscape:pageopacity="0"
     inkscape:pagecheckerboard="0"
     inkscape:deskcolor="#505050"
     inkscape:document-units="px"
     showgrid="true"
     inkscape:zoom="17.958333"
     inkscape:cx="19.87935"
     inkscape:cy="26.561485"
     inkscape:window-width="1908"
     inkscape:window-height="1068"
     inkscape:window-x="0"
     inkscape:window-y="0"
     inkscape:window-maximized="1"
     inkscape:current-layer="layer1"><inkscape:grid
       id="grid1"
       units="px"
       originx="0"
       originy="0"
       spacingx="0.26458334"
       spacingy="0.26458334"
       empcolor="#0099e5"
       empopacity="0.30196078"
       color="#0099e5"
       opacity="0.14901961"
       empspacing="6"
       dotted="false"
       gridanglex="30"
       gridanglez="30"
       visible="true" /></sodipodi:namedview><defs
     id="defs1"><linearGradient
       id="linearGradient18"
       inkscape:collect="always"><stop
         style="stop-color:#ff5555;stop-opacity:1;"
         offset="0"
         id="stop17" /><stop
         style="stop-color:#ff5555;stop-opacity:0.45640346;"
         offset="0.84041542"
         id="stop18" /></linearGradient><linearGradient
       id="linearGradient15"
       inkscape:collect="always"><stop
         style="stop-color:#000000;stop-opacity:1;"
         offset="0"
         id="stop14" /><stop
         style="stop-color:#ff5555;stop-opacity:0;"
         offset="1"
         id="stop15" /></linearGradient><linearGradient
       id="linearGradient8"
       inkscape:collect="always"><stop
         style="stop-color:#ffe495;stop-opacity:1;"
         offset="0"
         id="stop8" /><stop
         style="stop-color:#ff5555;stop-opacity:0;"
         offset="1"
         id="stop9" /></linearGradient><linearGradient
       id="linearGradient5"
       inkscape:collect="always"><stop
         style="stop-color:#4f4060;stop-opacity:1;"
         offset="0"
         id="stop5" /><stop
         style="stop-color:#ff5555;stop-opacity:1;"
         offset="1"
         id="stop6" /></linearGradient><linearGradient
       id="linearGradient3"
       inkscape:collect="always"><stop
         style="stop-color:#4f4060;stop-opacity:1;"
         offset="0"
         id="stop3" /><stop
         style="stop-color:#ff5555;stop-opacity:1;"
         offset="0.89999998"
         id="stop4" /></linearGradient><linearGradient
       inkscape:collect="always"
       xlink:href="#linearGradient3"
       id="linearGradient4"
       x1="5.0270839"
       y1="10.583334"
       x2="5.5562506"
       y2="6.8791671"
       gradientUnits="userSpaceOnUse" /><linearGradient
       inkscape:collect="always"
       xlink:href="#linearGradient5"
       id="linearGradient6"
       x1="6.3500004"
       y1="11.641667"
       x2="6.6145835"
       y2="7.4083338"
       gradientUnits="userSpaceOnUse" /><linearGradient
       inkscape:collect="always"
       xlink:href="#linearGradient8"
       id="linearGradient9"
       x1="0"
       y1="5.0270839"
       x2="5.8208337"
       y2="8.2020836"
       gradientUnits="userSpaceOnUse" /><linearGradient
       inkscape:collect="always"
       xlink:href="#linearGradient15"
       id="linearGradient14"
       gradientUnits="userSpaceOnUse"
       x1="7.1437502"
       y1="12.964584"
       x2="7.1437507"
       y2="9.7895842" /><linearGradient
       inkscape:collect="always"
       xlink:href="#linearGradient18"
       id="linearGradient17"
       gradientUnits="userSpaceOnUse"
       x1="3.9796021"
       y1="10.590051"
       x2="7.4083338"
       y2="4.7625003"
       gradientTransform="translate(0.12557403,0.14986198)" /></defs><g
     inkscape:label="Layer 1"
     inkscape:groupmode="layer"
     id="layer1"><path
       id="path1"
       style="fill:#443850;stroke-width:0.264583;fill-opacity:1"
       d="m 5.5562501,1.5875 v 0.2645834 c 0,0 0.5291664,1.5875007 0,2.1285522 C 5.0270837,4.5216872 2.3472596,5.9952038 2.3424927,7.8987428 2.3812497,10.583331 3.7041695,11.906251 6.3500001,11.90625 8.9958306,11.906251 10.318748,10.583331 10.357507,7.8987428 10.35274,5.995204 7.6729165,4.5216872 7.1437501,3.9806356 c -0.5291664,-0.5410515 0,-2.1285522 0,-2.1285522 V 1.5875 h -0.79375 z"
       sodipodi:nodetypes="ccscscscccc" /><path
       id="path1-2-6"
       style="fill:#3b3145;fill-opacity:1;stroke-width:0.229385"
       d="m 5.8208332,1.8520835 c 0.1515598,0.7937493 0.4066954,1.5877531 0,2.2706624 -0.3391122,0.569426 -3.1712233,2.0088337 -3.175,3.8147544 0.030706,2.5469137 1.6079744,3.7041677 3.7041667,3.7041667 2.0961922,10e-7 3.6734611,-1.157253 3.7041671,-3.7041667 -0.0038,-1.8059207 -2.8358882,-3.2453284 -3.1750003,-3.8147544 -0.4066954,-0.6829093 -0.1515598,-1.4769131 0,-2.2706624 H 6.3499999 Z"
       sodipodi:nodetypes="cscscsccc" /><path
       id="path1-2-6-3"
       style="fill:url(#linearGradient6);fill-opacity:1;stroke-width:0.229385"
       d="M 2.6911102,8.5927441 C 2.9104168,10.480952 4.2538076,11.641668 6.35,11.641667 c 2.0961921,10e-7 3.0371741,-1.051413 3.4836033,-2.2624388 -0.00117,-0.5558656 0,-0.8159523 -0.2696118,-1.1039603 C 9.2141453,7.901551 9.0092421,8.4580988 8.4114954,8.7669201 7.6063947,9.1828693 6.3916428,9.3770646 5.6401335,8.5927441 5.3777482,8.318903 5.4888607,8.5445886 4.3443283,7.0760017 3.5523684,6.0598121 2.6947972,6.8297276 2.6911102,8.5927441 Z"
       sodipodi:nodetypes="cscssssc" /><path
       id="path3-1"
       style="fill:url(#linearGradient17);stroke-width:0.0113771;stroke-dasharray:none"
       d="m 7.2047286,4.9056441 c -0.30199,0 -0.5467367,0.2447466 -0.5467367,0.5467367 0,0.3019901 0.2447467,0.5472534 0.5467367,0.5472534 0.3019902,0 0.5472534,-0.2452633 0.5472534,-0.5472534 0,-0.3019901 -0.2452632,-0.5467367 -0.5472534,-0.5467367 z M 5.9112674,5.9991175 c -0.2379453,0 -0.4705935,0.077505 -0.6635254,0.2253092 L 4.7945397,6.5727259 c -0.093332,0.070654 -0.1421102,0.1789543 -0.1421102,0.2883545 0,0.1949831 0.1557217,0.3648356 0.3648357,0.3648356 0.077583,0 0.1555959,-0.024645 0.2216919,-0.075448 l 0.451652,-0.3462321 c 0.067463,-0.051145 0.1484244,-0.077515 0.2227254,-0.077515 0.022985,0 0.045467,0.0027 0.066663,0.00775 l 0.1663981,0.048576 -0.4273641,0.9968384 c -0.024931,0.057003 -0.040187,0.1162451 -0.049093,0.1756999 L 5.2322391,8.9167689 H 4.4700117 c -0.2007949,0 -0.3648356,0.1640407 -0.3648356,0.3648356 0,0.200795 0.1640407,0.3643188 0.3648356,0.3643188 H 5.353162 c 0.2193701,0 0.4157925,-0.1309677 0.5012614,-0.3317627 L 6.1133223,8.749854 6.9887211,9.2655848 6.6750451,10.265524 c -0.011253,0.03617 -0.016536,0.07301 -0.016536,0.109037 0,0.155554 0.099641,0.299639 0.2557983,0.348299 0.03519,0.0114 0.073194,0.01705 0.1085205,0.01705 0.1552116,0 0.2988332,-0.09962 0.3472657,-0.256315 l 0.361735,-1.1508338 c 0.0138,-0.048752 0.020671,-0.098218 0.020671,-0.1472779 0,-0.1888293 -0.098527,-0.3705576 -0.2682007,-0.4723226 L 6.787183,8.3013026 7.1437504,7.4083338 7.3742273,7.8811732 c 0.091554,0.1854105 0.2856156,0.3064412 0.4816243,0.3064412 h 0.6252849 c 0.200795,0 0.3648356,-0.1640407 0.3648356,-0.3648356 0,-0.2017066 -0.1642685,-0.3648356 -0.3648356,-0.3648356 H 7.9798751 L 7.6822188,6.8512618 C 7.5397707,6.5606676 7.2788945,6.3468239 6.9783858,6.269902 L 6.1680993,6.0296066 C 6.0826304,6.0092076 5.9864801,5.9991175 5.9112674,5.9991175 Z" /><path
       id="path3"
       style="fill:url(#linearGradient4);stroke-width:0.01137708;stroke-dasharray:none"
       d="M 7.0791546 4.7557821 C 6.7771646 4.7557821 6.5324179 5.0005287 6.5324179 5.3025188 C 6.5324179 5.6045089 6.7771646 5.8497722 7.0791546 5.8497722 C 7.3811448 5.8497722 7.626408 5.6045089 7.626408 5.3025188 C 7.626408 5.0005287 7.3811448 4.7557821 7.0791546 4.7557821 z M 5.7856934 5.8492555 C 5.5477481 5.8492555 5.3150999 5.9267607 5.122168 6.0745647 L 4.6689657 6.4228639 C 4.5756337 6.4935182 4.5268555 6.6018182 4.5268555 6.7112184 C 4.5268555 6.9062015 4.6825772 7.076054 4.8916912 7.076054 C 4.9692741 7.076054 5.0472871 7.0514093 5.1133831 7.0006064 L 5.5650351 6.6543743 C 5.632498 6.6032293 5.7134595 6.5768596 5.7877605 6.5768596 C 5.8107455 6.5768596 5.8332271 6.5795611 5.8544231 6.5846111 L 6.0208212 6.6331869 L 5.5934571 7.6300253 C 5.5685265 7.6870287 5.5532702 7.7462704 5.5443645 7.8057252 L 5.1066651 8.7669069 L 4.3444377 8.7669069 C 4.1436428 8.7669069 3.9796021 8.9309476 3.9796021 9.1317425 C 3.9796021 9.3325375 4.1436428 9.4960613 4.3444377 9.4960613 L 5.227588 9.4960613 C 5.4469581 9.4960613 5.6433805 9.3650936 5.7288494 9.1642986 L 5.9877483 8.599992 L 6.8631471 9.1157228 L 6.5494711 10.115662 C 6.5382181 10.151832 6.5329347 10.188668 6.5329347 10.224699 C 6.5329347 10.380253 6.632576 10.524338 6.788733 10.572998 C 6.823923 10.584398 6.8619267 10.590051 6.8972535 10.590051 C 7.0524651 10.590051 7.1960867 10.490433 7.2445192 10.333736 L 7.6062542 9.1829022 C 7.6200542 9.1341502 7.6269248 9.084684 7.6269248 9.0356243 C 7.6269248 8.846795 7.5283974 8.6650667 7.3587241 8.5633017 L 6.661609 8.1514406 L 7.0181764 7.2584718 L 7.2486533 7.7313112 C 7.3402072 7.9167217 7.5342689 8.0377524 7.7302776 8.0377524 L 8.3555625 8.0377524 C 8.5563575 8.0377524 8.7203981 7.8737117 8.7203981 7.6729168 C 8.7203981 7.4712102 8.5561296 7.3080812 8.3555625 7.3080812 L 7.8543011 7.3080812 L 7.5566448 6.7013998 C 7.4141967 6.4108056 7.1533205 6.1969619 6.8528118 6.12004 L 6.0425253 5.8797446 C 5.9570564 5.8593456 5.8609061 5.8492555 5.7856934 5.8492555 z " /><path
       id="path1-7"
       style="fill:url(#linearGradient9);fill-opacity:1;stroke-width:0.264583"
       d="m 5.5562507,1.5875002 v 0.2645834 c 0,0 0.529166,1.5875007 0,2.1285522 -0.5291668,0.5410516 -3.208991,2.0145682 -3.2137579,3.9181072 0.038757,2.684588 1.3616769,4.007508 4.007508,4.007507 2.6458301,10e-7 3.9687472,-1.322919 4.0075062,-4.007507 -0.0048,-1.9035388 -2.6845901,-3.3770556 -3.2137571,-3.9181072 -0.5291661,-0.5410515 0,-2.1285522 0,-2.1285522 V 1.5875002 H 6.3500008 Z"
       sodipodi:nodetypes="ccscscscccc" /><path
       id="path1-7-4"
       style="fill:url(#linearGradient14);fill-opacity:1;stroke-width:0.264583"
       d="m 5.5562507,1.5875003 v 0.2645834 c 0,0 0.529166,1.5875007 0,2.1285522 -0.5291668,0.5410516 -3.208991,2.0145682 -3.2137579,3.918107 0.038757,2.6845881 1.3616769,4.0075081 4.007508,4.0075071 2.6458301,10e-7 3.9687472,-1.322919 4.0075062,-4.0075071 -0.0048,-1.9035386 -2.6845901,-3.3770554 -3.2137571,-3.918107 -0.5291661,-0.5410515 0,-2.1285522 0,-2.1285522 V 1.5875003 H 6.3500008 Z"
       sodipodi:nodetypes="ccscscscccc" /></g><metadata
     id="metadata1"><rdf:RDF><cc:Work
         rdf:about=""><dc:title>Runixeer Icon</dc:title><dc:creator><cc:Agent><dc:title>A. Taha Baki &lt;atahabaki.dev@pm.me&gt;</dc:title></cc:Agent></dc:creator><dc:publisher><cc:Agent><dc:title>A. Taha Baki &lt;atahabaki.dev@pm.me&gt;</dc:title></cc:Agent></dc:publisher><dc:date>Wed, 11 Sep 2024 22:30:26 +0300 (now)</dc:date><cc:license
           rdf:resource="https://www.gnu.org/licenses/gpl-3.0.txt" /><dc:rights><cc:Agent><dc:title>A. Taha Baki &lt;atahabaki.dev@pm.me&gt;</dc:title></cc:Agent></dc:rights><dc:description>Runixeer Icon</dc:description></cc:Work></rdf:RDF></metadata></svg>
